<?xml version="1.0" encoding="UTF-8" standalone="no"?><!DOCTYPE svg PUBLIC "-//W3C//DTD SVG 1.1//EN" "http://www.w3.org/Graphics/SVG/1.1/DTD/svg11.dtd"><svg width="100%" height="100%" viewBox="0 0 504 18" version="1.1" xmlns="http://www.w3.org/2000/svg" xmlns:xlink="http://www.w3.org/1999/xlink" xml:space="preserve" xmlns:serif="http://www.serif.com/" style="fill-rule:evenodd;clip-rule:evenodd;stroke-linejoin:round;stroke-miterlimit:1.41421;"><path d="M2,7.592c20.837,-0.653 41.672,-1.021 62.507,-1.518l62.5,0.28l125,0.528l125,0.531l62.498,0.264c20.832,0.683 41.662,1.228 62.495,2.031c-20.837,0.629 -41.675,0.995 -62.509,1.504l-62.5,-0.264l-125,-0.53l-124.998,-0.528l-62.5,-0.253c-20.83,-0.674 -41.663,-1.213 -62.493,-2.045" style="fill:#fff;fill-rule:nonzero;"/><path d="M257.061,8.584c0.049,2.797 -1.945,5.793 -4.976,5.15c-2.734,-0.585 -5.1,-2.183 -5.147,-4.978c-0.047,-2.795 2.376,-4.12 4.975,-5.145c2.256,-0.891 5.101,2.177 5.148,4.973Z" style="fill:#fff;fill-rule:nonzero;"/><path d="M279.764,10.897c-1.218,-2.517 -0.672,-6.074 2.35,-6.764c2.725,-0.623 5.543,-0.165 6.762,2.349c1.218,2.515 -0.422,4.738 -2.35,6.762c-1.671,1.758 -5.543,0.168 -6.762,-2.347Z" style="fill:#fff;fill-rule:nonzero;"/><path d="M220.817,13.944c-2.652,-0.888 -4.811,-3.768 -3.189,-6.41c1.461,-2.381 3.759,-4.078 6.408,-3.187c2.652,0.889 3.09,3.613 3.189,6.406c0.087,2.425 -3.757,4.08 -6.408,3.191Z" style="fill:#fff;fill-rule:nonzero;"/><path d="M216.17,10.876c1.157,2.355 3.318,4.002 5.805,4.744c2.42,0.719 4.211,-1.216 4.475,-3.41c0.309,-2.569 0.13,-5.086 -0.344,-7.629c-0.351,-1.879 -2.621,-2.944 -4.348,-2.468c-1.971,0.542 -2.824,2.465 -2.47,4.349c0.356,1.899 0.32,3.834 0.092,5.748c1.492,-1.136 2.981,-2.272 4.475,-3.408c-0.773,-0.231 -1.129,-0.577 -1.581,-1.494c-0.841,-1.714 -3.271,-2.183 -4.836,-1.268c-1.747,1.02 -2.115,3.118 -1.268,4.836" style="fill:#fff;fill-rule:nonzero;"/><path d="M245.542,7.847c0.639,1.589 1.278,3.18 1.916,4.766c0.568,1.412 1.744,2.67 3.411,2.597c1.605,-0.073 2.915,-1.056 3.408,-2.597c0.301,-0.943 0.728,-1.928 0.928,-2.899c0.165,-0.809 -0.205,0.063 -0.414,0.349c0.367,-0.194 0.398,-0.212 0.096,-0.064c0.219,-0.071 0.439,-0.139 0.662,-0.203c1.829,-0.535 2.98,-2.486 2.468,-4.348c-0.5,-1.822 -2.51,-3.01 -4.348,-2.468c-1.763,0.516 -3.434,1.315 -4.452,2.92c-0.891,1.4 -1.257,3.265 -1.759,4.834l6.819,0c-0.639,-1.588 -1.278,-3.177 -1.916,-4.768c-0.712,-1.77 -2.36,-3.014 -4.351,-2.47c-1.681,0.465 -3.184,2.569 -2.468,4.351" style="fill:#fff;fill-rule:nonzero;"/><path d="M286.311,3.575c-2.13,0.891 -4.131,1.886 -6.026,3.21c1.612,1.613 3.224,3.225 4.836,4.837c0.292,-0.542 0.528,-1.108 0.7,-1.7c0.429,-1.501 -1.398,0.771 -0.478,0.378c-0.594,0.16 -1.188,0.318 -1.782,0.48c-0.13,-0.016 -0.257,-0.033 -0.384,-0.051c1.746,0.617 3.945,-0.698 4.351,-2.471c0.45,-1.977 -0.601,-3.686 -2.471,-4.346c-1.583,-0.561 -3.342,0.012 -4.525,1.146c-0.601,0.575 -0.997,1.31 -1.27,2.086c-0.05,0.141 -0.467,1.322 -0.245,0.909c-0.747,1.391 -0.585,3.147 0.551,4.285c1.047,1.047 3.012,1.443 4.285,0.552c1.332,-0.931 3.045,-1.956 4.337,-2.496c1.76,-0.738 3.024,-2.341 2.47,-4.349c-0.457,-1.661 -2.576,-3.21 -4.349,-2.47" style="fill:#fff;fill-rule:nonzero;"/></svg>